<?xml version="1.0" encoding="UTF-8" standalone="no"?>
<!DOCTYPE svg PUBLIC "-//W3C//DTD SVG 1.1//EN" "http://www.w3.org/Graphics/SVG/1.1/DTD/svg11.dtd">
<svg width="100%" height="100%" viewBox="0 0 198 198" version="1.1" xmlns="http://www.w3.org/2000/svg" xmlns:xlink="http://www.w3.org/1999/xlink" xml:space="preserve" xmlns:serif="http://www.serif.com/" style="fill-rule:evenodd;clip-rule:evenodd;stroke-linejoin:round;stroke-miterlimit:2;">
    <g transform="matrix(1,0,0,1,-1910.04,-370.893)">
        <g transform="matrix(10.9819,0,0,-10.9671,1877.09,601.202)">
            <path d="M12,19.625C16.612,19.731 19.658,15.837 19.658,11.978C19.658,8.12 16.209,4.437 12,4.395C7.702,4.352 4.382,8.088 4.294,11.946C4.195,16.288 8.058,19.629 11.896,19.622C11.931,19.622 11.965,19.624 12,19.625M12,21C7.029,20.999 3,16.97 3,11.999C3,7.029 7.029,3 12,3C16.97,3.001 21,7.03 21,11.999C21,16.97 16.971,20.999 12,21L12,21Z" style="fill-rule:nonzero;"/>
        </g>
        <g transform="matrix(10.9819,0,0,-10.9671,1877.09,600.873)">
            <path d="M16.182,16.151C16.053,16.279 15.867,16.329 15.691,16.278L9.74,14.572C9.574,14.524 9.445,14.395 9.398,14.229L7.691,8.278C7.64,8.103 7.689,7.915 7.818,7.787C7.913,7.692 8.041,7.641 8.172,7.641C8.217,7.641 8.264,7.647 8.31,7.661L14.26,9.369C14.425,9.416 14.555,9.546 14.602,9.712L16.309,15.661C16.359,15.834 16.311,16.022 16.182,16.151ZM8.9,8.869L10.283,13.686L13.717,10.251L8.9,8.869Z" style="fill-rule:nonzero;"/>
        </g>
    </g>
</svg>
