<?xml version="1.0" encoding="UTF-8" standalone="no"?>
<!DOCTYPE svg PUBLIC "-//W3C//DTD SVG 1.1//EN" "http://www.w3.org/Graphics/SVG/1.1/DTD/svg11.dtd">
<svg width="100%" height="100%" viewBox="0 0 174 146" version="1.1" xmlns="http://www.w3.org/2000/svg" xmlns:xlink="http://www.w3.org/1999/xlink" xml:space="preserve" xmlns:serif="http://www.serif.com/" style="fill-rule:evenodd;clip-rule:evenodd;stroke-linejoin:round;stroke-miterlimit:2;">
    <g transform="matrix(1,0,0,1,-1340.01,-396.771)">
        <g transform="matrix(10.8448,0,0,-10.4058,1296.63,469.612)">
            <path d="M5,5L19,5C19.6,5 20,5.4 20,6C20,6.6 19.6,7 19,7L5,7C4.4,7 4,6.6 4,6C4,5.4 4.4,5 5,5Z" style="fill-rule:nonzero;"/>
        </g>
        <g transform="matrix(10.8448,0,0,-10.4058,1296.63,594.481)">
            <path d="M5,11L19,11C19.6,11 20,11.4 20,12C20,12.6 19.6,13 19,13L5,13C4.4,13 4,12.6 4,12C4,11.4 4.4,11 5,11Z" style="fill-rule:nonzero;"/>
        </g>
        <g transform="matrix(10.8448,0,0,-10.4058,1296.63,719.35)">
            <path d="M5,17L19,17C19.6,17 20,17.4 20,18C20,18.6 19.6,19 19,19L5,19C4.4,19 4,18.6 4,18C4,17.4 4.4,17 5,17Z" style="fill-rule:nonzero;"/>
        </g>
    </g>
</svg>
