<?xml version="1.0" encoding="UTF-8" standalone="no"?>
<!DOCTYPE svg PUBLIC "-//W3C//DTD SVG 1.1//EN" "http://www.w3.org/Graphics/SVG/1.1/DTD/svg11.dtd">
<svg width="100%" height="100%" viewBox="0 0 182 194" version="1.1" xmlns="http://www.w3.org/2000/svg" xmlns:xlink="http://www.w3.org/1999/xlink" xml:space="preserve" xmlns:serif="http://www.serif.com/" style="fill-rule:evenodd;clip-rule:evenodd;stroke-linejoin:round;stroke-miterlimit:2;">
    <g transform="matrix(1,0,0,1,-1668.59,-371.56)">
        <g transform="matrix(6.46043,0,0,-6.45175,1655.7,571.564)">
            <path d="M29,1L3,1C2.867,1 2.74,1.025 2.617,1.076C2.495,1.127 2.387,1.199 2.293,1.293C2.199,1.387 2.127,1.495 2.076,1.617C2.025,1.74 2,1.867 2,2L2,30C2,30.133 2.025,30.26 2.076,30.383C2.127,30.505 2.199,30.613 2.293,30.707C2.387,30.801 2.495,30.873 2.617,30.924C2.74,30.975 2.867,31 3,31L29,31C29.133,31 29.26,30.975 29.383,30.924C29.505,30.873 29.613,30.801 29.707,30.707C29.801,30.613 29.873,30.505 29.924,30.383C29.975,30.26 30,30.133 30,30L30,2C30,1.867 29.975,1.74 29.924,1.617C29.873,1.495 29.801,1.387 29.707,1.293C29.613,1.199 29.505,1.127 29.383,1.076C29.26,1.025 29.133,1 29,1ZM4,3L28,3L28,29L4,29L4,3Z" style="fill:rgb(16,24,32);fill-rule:nonzero;"/>
        </g>
        <g transform="matrix(6.46043,0,0,-6.45175,1655.7,628.441)">
            <path d="M3,15.816C2.723,15.814 2.487,15.911 2.29,16.106C2.195,16.2 2.122,16.308 2.071,16.431C2.02,16.554 1.994,16.682 1.994,16.816C1.994,16.949 2.02,17.077 2.071,17.2C2.122,17.323 2.195,17.432 2.29,17.526L7.09,22.326C7.215,22.453 7.351,22.569 7.496,22.672C7.642,22.775 7.796,22.864 7.958,22.94C8.12,23.016 8.287,23.077 8.459,23.123C8.632,23.169 8.807,23.199 8.985,23.213C9.163,23.228 9.341,23.227 9.519,23.209C9.697,23.192 9.872,23.159 10.044,23.111C10.216,23.063 10.382,22.999 10.543,22.921C10.703,22.843 10.856,22.751 11,22.646L15.24,19.646C15.337,19.577 15.442,19.527 15.556,19.496C15.671,19.464 15.787,19.454 15.905,19.464C16.023,19.474 16.136,19.504 16.244,19.554C16.351,19.604 16.446,19.672 16.53,19.756L20.92,24.136C21.059,24.275 21.211,24.399 21.374,24.508C21.538,24.618 21.711,24.71 21.893,24.785C22.075,24.86 22.262,24.917 22.455,24.956C22.648,24.994 22.843,25.013 23.04,25.013C23.237,25.013 23.432,24.994 23.625,24.956C23.818,24.917 24.005,24.86 24.187,24.785C24.369,24.71 24.542,24.618 24.706,24.508C24.869,24.399 25.021,24.275 25.16,24.136L29.75,19.556C29.844,19.462 29.917,19.353 29.968,19.23C30.019,19.107 30.044,18.979 30.044,18.846C30.044,18.713 30.019,18.585 29.968,18.462C29.917,18.338 29.844,18.23 29.75,18.136C29.656,18.042 29.547,17.969 29.424,17.918C29.301,17.867 29.173,17.842 29.04,17.842C28.907,17.842 28.779,17.867 28.656,17.918C28.533,17.969 28.424,18.042 28.33,18.136L23.75,22.726C23.656,22.82 23.548,22.893 23.425,22.945C23.302,22.996 23.173,23.022 23.04,23.022C22.907,23.022 22.778,22.996 22.655,22.945C22.532,22.893 22.424,22.82 22.33,22.726L17.95,18.336C17.825,18.211 17.691,18.098 17.546,17.997C17.402,17.896 17.249,17.808 17.089,17.734C16.929,17.659 16.764,17.6 16.593,17.555C16.423,17.509 16.25,17.48 16.074,17.465C15.898,17.451 15.722,17.452 15.547,17.468C15.371,17.484 15.198,17.516 15.028,17.563C14.858,17.61 14.693,17.672 14.534,17.748C14.375,17.824 14.223,17.913 14.08,18.016L9.84,21.016C9.743,21.085 9.638,21.135 9.524,21.166C9.409,21.197 9.293,21.208 9.175,21.198C9.057,21.188 8.944,21.157 8.836,21.107C8.729,21.057 8.634,20.99 8.55,20.906L3.75,16.106C3.542,15.899 3.292,15.803 3,15.816Z" style="fill:rgb(16,24,32);fill-rule:nonzero;"/>
        </g>
        <g transform="matrix(6.46043,0,0,-6.45175,1655.7,494.143)">
            <path d="M17,6C16.737,6 16.477,6.026 16.22,6.077C15.962,6.128 15.712,6.204 15.469,6.304C15.227,6.405 14.996,6.528 14.778,6.674C14.559,6.82 14.357,6.986 14.172,7.172C13.986,7.357 13.82,7.559 13.674,7.778C13.528,7.996 13.405,8.227 13.304,8.469C13.204,8.712 13.128,8.962 13.077,9.22C13.026,9.477 13,9.737 13,10C13,10.263 13.026,10.523 13.077,10.78C13.128,11.038 13.204,11.288 13.304,11.531C13.405,11.773 13.528,12.004 13.674,12.222C13.82,12.441 13.986,12.643 14.172,12.828C14.357,13.014 14.559,13.18 14.778,13.326C14.996,13.472 15.227,13.595 15.469,13.696C15.712,13.796 15.962,13.872 16.22,13.923C16.477,13.974 16.737,14 17,14C17.263,14 17.523,13.974 17.78,13.923C18.038,13.872 18.288,13.796 18.531,13.696C18.773,13.595 19.004,13.472 19.222,13.326C19.441,13.18 19.643,13.014 19.828,12.828C20.014,12.643 20.18,12.441 20.326,12.222C20.472,12.004 20.595,11.773 20.696,11.531C20.796,11.288 20.872,11.038 20.923,10.78C20.974,10.523 21,10.263 21,10C21,9.737 20.974,9.477 20.923,9.22C20.872,8.962 20.796,8.712 20.696,8.469C20.595,8.227 20.472,7.996 20.326,7.778C20.18,7.559 20.014,7.357 19.828,7.172C19.643,6.986 19.441,6.82 19.222,6.674C19.004,6.528 18.773,6.405 18.531,6.304C18.288,6.204 18.038,6.128 17.78,6.077C17.523,6.026 17.263,6 17,6ZM17,12C16.869,12 16.739,11.987 16.61,11.962C16.481,11.936 16.356,11.898 16.235,11.848C16.113,11.798 15.998,11.736 15.889,11.663C15.78,11.59 15.679,11.507 15.586,11.414C15.493,11.321 15.41,11.22 15.337,11.111C15.264,11.002 15.202,10.887 15.152,10.765C15.102,10.644 15.064,10.519 15.038,10.39C15.013,10.261 15,10.131 15,10C15,9.869 15.013,9.739 15.038,9.61C15.064,9.481 15.102,9.356 15.152,9.235C15.202,9.113 15.264,8.998 15.337,8.889C15.41,8.78 15.493,8.679 15.586,8.586C15.679,8.493 15.78,8.41 15.889,8.337C15.998,8.264 16.113,8.202 16.235,8.152C16.356,8.102 16.481,8.064 16.61,8.038C16.739,8.013 16.869,8 17,8C17.131,8 17.261,8.013 17.39,8.038C17.519,8.064 17.644,8.102 17.765,8.152C17.887,8.202 18.002,8.264 18.111,8.337C18.22,8.41 18.321,8.493 18.414,8.586C18.507,8.679 18.59,8.78 18.663,8.889C18.736,8.998 18.798,9.113 18.848,9.235C18.898,9.356 18.936,9.481 18.962,9.61C18.987,9.739 19,9.869 19,10C19,10.131 18.987,10.261 18.962,10.39C18.936,10.519 18.898,10.644 18.848,10.765C18.798,10.887 18.736,11.002 18.663,11.111C18.59,11.22 18.507,11.321 18.414,11.414C18.321,11.507 18.22,11.59 18.111,11.663C18.002,11.736 17.887,11.798 17.765,11.848C17.644,11.898 17.519,11.936 17.39,11.962C17.261,11.987 17.131,12 17,12Z" style="fill:rgb(16,24,32);fill-rule:nonzero;"/>
        </g>
    </g>
</svg>
