<?xml version="1.0" encoding="UTF-8" standalone="no"?>
<!DOCTYPE svg PUBLIC "-//W3C//DTD SVG 1.1//EN" "http://www.w3.org/Graphics/SVG/1.1/DTD/svg11.dtd">
<svg width="100%" height="100%" viewBox="0 0 215 214" version="1.1" xmlns="http://www.w3.org/2000/svg" xmlns:xlink="http://www.w3.org/1999/xlink" xml:space="preserve" xmlns:serif="http://www.serif.com/" style="fill-rule:evenodd;clip-rule:evenodd;stroke-linejoin:round;stroke-miterlimit:2;">
    <g transform="matrix(1,0,0,1,-1000.42,-352.93)">
        <g transform="matrix(11.5922,0,0,-11.5766,994.289,578.334)">
            <path d="M17.551,19.471L17.346,19.465L17.145,19.43L16.949,19.367L16.766,19.279L16.594,19.168L16.439,19.033L12.549,15.145L12.326,14.937L12.082,14.752L11.826,14.588L11.555,14.447L11.273,14.33L10.982,14.238L10.682,14.172L10.381,14.131L10.076,14.119L9.77,14.131L9.469,14.172L9.17,14.238L8.879,14.33L8.596,14.447L8.324,14.588L8.068,14.752L7.826,14.937L7.602,15.145L0.529,8.072L7.602,1.002L14.672,8.072L14.465,8.299L14.279,8.541L14.115,8.797L13.975,9.068L13.857,9.352L13.766,9.643L13.699,9.939L13.66,10.242L13.646,10.549L13.66,10.854L13.699,11.154L13.766,11.455L13.857,11.746L13.975,12.027L14.115,12.297L14.279,12.555L14.465,12.799L14.672,13.021L18.561,16.912L18.695,17.066L18.807,17.236L18.895,17.422L18.957,17.617L18.992,17.818L18.998,18.023L18.977,18.227L18.93,18.426L18.854,18.615L18.754,18.795L18.629,18.959L18.486,19.102L18.322,19.227L18.143,19.326L17.953,19.402L17.756,19.449L17.551,19.471ZM17.443,18.469L17.557,18.469L17.664,18.443L17.766,18.396L17.854,18.326L17.924,18.238L17.971,18.137L17.996,18.029L17.996,17.916L17.971,17.807L17.924,17.705L17.854,17.617L13.965,13.73L13.723,13.469L13.502,13.187L13.305,12.891L13.133,12.58L12.984,12.256L12.861,11.92L12.766,11.578L12.697,11.227L12.658,10.873L12.646,10.518L12.662,10.162L12.707,9.807L12.781,9.459L12.881,9.115L13.008,8.783L13.16,8.461L13.336,8.152L12.904,7.721L7.248,13.377L7.68,13.809L7.988,13.633L8.313,13.479L8.645,13.354L8.986,13.254L9.336,13.18L9.689,13.135L10.045,13.119L10.4,13.131L10.754,13.17L11.105,13.238L11.447,13.334L11.783,13.455L12.107,13.604L12.418,13.777L12.715,13.975L12.996,14.195L13.258,14.437L17.146,18.326L17.232,18.396L17.334,18.443L17.443,18.469ZM6.541,12.67L12.197,7.014L10.643,5.457L10.623,5.713L10.586,5.967L10.557,6.092L10.52,6.215L10.469,6.332L10.404,6.443L10.326,6.547L10.236,6.635L10.131,6.711L10.018,6.77L9.896,6.812L9.771,6.838L9.643,6.85L9.516,6.85L9.387,6.838L9.26,6.818L9.01,6.762L8.766,6.687L8.523,6.604L8.047,6.414L7.605,6.244L7.598,6.225L7.568,6.23L7.605,6.244L8.102,7.535L8.213,7.867L8.307,8.207L8.344,8.379L8.369,8.551L8.381,8.725L8.371,8.9L8.357,8.988L8.336,9.072L8.309,9.156L8.27,9.236L8.225,9.311L8.168,9.379L8.105,9.441L8.037,9.496L7.961,9.541L7.881,9.576L7.797,9.604L7.711,9.619L7.623,9.629L7.535,9.631L7.361,9.615L7.187,9.58L7.02,9.535L6.684,9.43L6.354,9.314L6.186,9.26L6.039,9.223L6.039,9.209L6.014,9.217L6.039,9.223L6.057,9.521L6.078,9.832L6.08,9.988L6.076,10.145L6.059,10.299L6.029,10.453L5.984,10.602L5.924,10.746L5.852,10.883L5.766,11.014L5.666,11.135L5.557,11.246L5.438,11.348L5.314,11.441L6.541,12.67ZM4.59,10.721L4.717,10.641L4.836,10.549L4.941,10.443L4.984,10.383L5.02,10.316L5.049,10.248L5.064,10.176L5.08,10.027L5.07,9.729L5.049,9.432L5.037,9.133L5.045,8.984L5.066,8.836L5.109,8.693L5.174,8.559L5.215,8.498L5.264,8.439L5.316,8.387L5.375,8.34L5.439,8.301L5.506,8.266L5.648,8.221L5.795,8.199L5.943,8.199L6.094,8.215L6.238,8.242L6.527,8.32L6.811,8.416L7.092,8.514L7.363,8.592L7.367,8.615L7.379,8.596L7.363,8.592L7.328,8.416L7.273,8.219L7.145,7.832L6.848,7.068L6.699,6.687L6.631,6.494L6.57,6.299L6.523,6.1L6.508,6L6.5,5.896L6.5,5.795L6.514,5.693L6.541,5.594L6.58,5.5L6.633,5.412L6.699,5.334L6.777,5.266L6.865,5.215L6.959,5.174L7.061,5.148L7.16,5.137L7.264,5.135L7.365,5.145L7.467,5.162L7.664,5.211L7.859,5.273L8.051,5.342L8.811,5.643L9.197,5.777L9.396,5.826L9.498,5.844L9.584,5.85L9.58,5.865L9.6,5.852L9.584,5.85L9.604,5.783L9.617,5.701L9.635,5.533L9.652,5.197L9.672,4.861L9.711,4.527L7.602,2.416L1.945,8.072L4.59,10.721Z" style="fill:rgb(34,34,34);fill-rule:nonzero;"/>
        </g>
    </g>
</svg>
