<?xml version="1.0" encoding="UTF-8" standalone="no"?>
<!DOCTYPE svg PUBLIC "-//W3C//DTD SVG 1.1//EN" "http://www.w3.org/Graphics/SVG/1.1/DTD/svg11.dtd">
<svg width="100%" height="100%" viewBox="0 0 138 138" version="1.1" xmlns="http://www.w3.org/2000/svg" xmlns:xlink="http://www.w3.org/1999/xlink" xml:space="preserve" xmlns:serif="http://www.serif.com/" style="fill-rule:evenodd;clip-rule:evenodd;stroke-linejoin:round;stroke-miterlimit:2;">
    <g transform="matrix(1,0,0,1,-772.753,-361.464)">
        <g transform="matrix(9.55688,0,0,-9.54403,771.472,525.792)">
            <path d="M5.309,7.043C6.507,7.043 7.593,7.484 8.456,8.189L13.667,2.98L14.374,3.687L9.163,8.896C9.868,9.759 10.309,10.845 10.309,12.043C10.309,14.8 8.066,17.043 5.309,17.043C2.552,17.043 0.309,14.8 0.309,12.043C0.309,9.286 2.552,7.043 5.309,7.043ZM5.309,16.043C7.518,16.043 9.309,14.252 9.309,12.043C9.309,9.834 7.518,8.043 5.309,8.043C3.1,8.043 1.309,9.834 1.309,12.043C1.309,14.252 3.1,16.043 5.309,16.043Z" style="fill-rule:nonzero;stroke:black;stroke-width:0.35px;"/>
        </g>
    </g>
</svg>
