<?xml version="1.0" encoding="UTF-8" standalone="no"?>
<!DOCTYPE svg PUBLIC "-//W3C//DTD SVG 1.1//EN" "http://www.w3.org/Graphics/SVG/1.1/DTD/svg11.dtd">
<svg width="100%" height="100%" viewBox="0 0 179 144" version="1.1" xmlns="http://www.w3.org/2000/svg" xmlns:xlink="http://www.w3.org/1999/xlink" xml:space="preserve" xmlns:serif="http://www.serif.com/" style="fill-rule:evenodd;clip-rule:evenodd;stroke-linejoin:round;stroke-miterlimit:2;">
    <g transform="matrix(1,0,0,1,-513.304,-360.799)">
        <g transform="matrix(0.482609,0,0,0.482609,356.818,187.536)">
            <g transform="matrix(3.62953,0,0,-3.62466,276.219,740.209)">
                <path d="M61.894,62.056L16.185,62.056C15.081,62.056 14.185,62.952 14.185,64.056C14.185,65.16 15.081,66.056 16.185,66.056L61.894,66.056C62.998,66.056 63.894,65.16 63.894,64.056C63.894,62.952 62.998,62.056 61.894,62.056Z" style="fill-rule:nonzero;stroke:black;stroke-width:1.9px;"/>
            </g>
        </g>
        <g transform="matrix(0.482609,0,0,0.482609,356.818,187.536)">
            <g transform="matrix(3.62953,0,0,-3.62466,276.219,740.209)">
                <path d="M111.907,62.056L87.655,62.056C86.551,62.056 85.655,62.952 85.655,64.056C85.655,65.16 86.551,66.056 87.655,66.056L111.907,66.056C113.011,66.056 113.907,65.16 113.907,64.056C113.907,62.952 113.012,62.056 111.907,62.056Z" style="fill-rule:nonzero;stroke:black;stroke-width:1.9px;"/>
            </g>
        </g>
        <g transform="matrix(0.482609,0,0,0.482609,356.818,187.536)">
            <g transform="matrix(3.62953,0,0,-3.62466,276.219,961.697)">
                <path d="M48.503,92.609L16.185,92.609C15.081,92.609 14.185,93.505 14.185,94.609C14.185,95.713 15.081,96.609 16.185,96.609L48.503,96.609C49.607,96.609 50.503,95.713 50.503,94.609C50.503,93.505 49.607,92.609 48.503,92.609Z" style="fill-rule:nonzero;stroke:black;stroke-width:1.9px;"/>
            </g>
        </g>
        <g transform="matrix(0.482609,0,0,0.482609,356.818,187.536)">
            <g transform="matrix(3.62953,0,0,-3.62466,276.219,961.697)">
                <path d="M111.907,92.609L74.774,92.609C73.67,92.609 72.774,93.505 72.774,94.609C72.774,95.713 73.67,96.609 74.774,96.609L111.907,96.609C113.011,96.609 113.907,95.713 113.907,94.609C113.907,93.505 113.012,92.609 111.907,92.609Z" style="fill-rule:nonzero;stroke:black;stroke-width:1.9px;"/>
            </g>
        </g>
        <g transform="matrix(0.482609,0,0,0.482609,356.818,187.536)">
            <g transform="matrix(3.62953,0,0,-3.62466,276.219,518.714)">
                <path d="M35.013,31.502L16.185,31.502C15.081,31.502 14.185,32.398 14.185,33.502C14.185,34.606 15.081,35.502 16.185,35.502L35.013,35.502C36.117,35.502 37.013,34.606 37.013,33.502C37.013,32.398 36.117,31.502 35.013,31.502Z" style="fill-rule:nonzero;stroke:black;stroke-width:1.9px;"/>
            </g>
        </g>
        <g transform="matrix(0.482609,0,0,0.482609,356.818,187.536)">
            <g transform="matrix(3.62953,0,0,-3.62466,276.219,518.714)">
                <path d="M111.907,31.502L60.776,31.502C59.672,31.502 58.776,32.398 58.776,33.502C58.776,34.606 59.672,35.502 60.776,35.502L111.907,35.502C113.011,35.502 113.907,34.606 113.907,33.502C113.907,32.398 113.012,31.502 111.907,31.502Z" style="fill-rule:nonzero;stroke:black;stroke-width:1.9px;"/>
            </g>
        </g>
        <g transform="matrix(0.482609,0,0,0.482609,356.818,187.536)">
            <g transform="matrix(3.62953,0,0,-3.62466,276.219,518.703)">
                <path d="M42.616,23.897C37.321,23.897 33.012,28.206 33.012,33.501C33.012,38.796 37.321,43.104 42.616,43.104C47.911,43.104 52.22,38.796 52.22,33.501C52.22,28.205 47.911,23.897 42.616,23.897ZM42.616,39.104C39.526,39.104 37.012,36.59 37.012,33.501C37.012,30.411 39.526,27.897 42.616,27.897C45.706,27.897 48.22,30.411 48.22,33.501C48.22,36.59 45.706,39.104 42.616,39.104Z" style="fill-rule:nonzero;stroke:black;stroke-width:1.9px;"/>
            </g>
        </g>
        <g transform="matrix(0.482609,0,0,0.482609,356.818,187.536)">
            <g transform="matrix(3.62953,0,0,-3.62466,276.219,961.708)">
                <path d="M56.106,85.006C50.811,85.006 46.502,89.315 46.502,94.611C46.502,99.906 50.811,104.215 56.106,104.215C61.403,104.215 65.711,99.906 65.711,94.611C65.712,89.315 61.403,85.006 56.106,85.006ZM56.106,100.215C53.016,100.215 50.502,97.701 50.502,94.611C50.502,91.519 53.016,89.006 56.106,89.006C59.197,89.006 61.711,91.52 61.711,94.611C61.712,97.701 59.197,100.215 56.106,100.215Z" style="fill-rule:nonzero;stroke:black;stroke-width:1.9px;"/>
            </g>
        </g>
        <g transform="matrix(0.482609,0,0,0.482609,356.818,187.536)">
            <g transform="matrix(3.62953,0,0,-3.62466,276.219,740.213)">
                <path d="M69.501,54.452C64.203,54.452 59.894,58.762 59.894,64.057C59.894,69.352 64.204,73.661 69.501,73.661C74.795,73.661 79.103,69.353 79.103,64.057C79.103,58.761 74.795,54.452 69.501,54.452ZM69.501,69.661C66.409,69.661 63.894,67.147 63.894,64.057C63.894,60.966 66.41,58.452 69.501,58.452C72.59,58.452 75.103,60.967 75.103,64.057C75.103,67.147 72.59,69.661 69.501,69.661L69.501,69.661Z" style="fill-rule:nonzero;stroke:black;stroke-width:1.9px;"/>
            </g>
        </g>
    </g>
</svg>
